<?xml version="1.0" encoding="utf-8"?>
<!-- Generator: Adobe Illustrator 16.0.4, SVG Export Plug-In . SVG Version: 6.00 Build 0)  -->
<!DOCTYPE svg PUBLIC "-//W3C//DTD SVG 1.1//EN" "http://www.w3.org/Graphics/SVG/1.1/DTD/svg11.dtd">
<svg version="1.1" id="Layer_1" xmlns="http://www.w3.org/2000/svg" xmlns:xlink="http://www.w3.org/1999/xlink" x="0px" y="0px"
	 width="70.75px" height="58.25px" viewBox="0 0 70.75 58.25" enable-background="new 0 0 70.75 58.25" xml:space="preserve">
<path d="M53.324,3c6.444,0,11.672,5.375,11.672,12.008c0,6.632-5.228,12.008-11.672,12.008c-11.668,0-3.891,23.215,11.672,23.215
	v5.601C37.226,55.832,26.342,3,53.324,3L53.324,3z M19.706,3c6.444,0,11.671,5.375,11.671,12.008
	c0,6.632-5.227,12.008-11.671,12.008c-11.668,0-3.891,23.215,11.671,23.215v5.601C3.603,55.832-7.28,3,19.706,3L19.706,3z"/>
</svg>
