<?xml version="1.0" encoding="utf-8"?>
<!-- Generator: Adobe Illustrator 16.0.4, SVG Export Plug-In . SVG Version: 6.00 Build 0)  -->
<!DOCTYPE svg PUBLIC "-//W3C//DTD SVG 1.1//EN" "http://www.w3.org/Graphics/SVG/1.1/DTD/svg11.dtd">
<svg version="1.1" id="Layer_1" xmlns="http://www.w3.org/2000/svg" xmlns:xlink="http://www.w3.org/1999/xlink" x="0px" y="0px"
	 width="65.834px" height="60.5px" viewBox="0 0 65.834 60.5" enable-background="new 0 0 65.834 60.5" xml:space="preserve">
<path d="M14.501,3.976C8.167,3.976,3.028,9.26,3.028,15.78c0,6.52,5.139,11.804,11.474,11.804c11.47,0,3.825,22.822-11.474,22.822
	v5.504C30.327,55.911,41.026,3.976,14.501,3.976L14.501,3.976z M47.55,3.976c-6.335,0-11.474,5.285-11.474,11.805
	c0,6.52,5.139,11.804,11.474,11.804c11.47,0,3.824,22.822-11.474,22.822v5.504C63.379,55.911,74.078,3.976,47.55,3.976L47.55,3.976z
	"/>
</svg>
